<svg xmlns="http://www.w3.org/2000/svg" viewBox="0 0 226.03 149.94"><defs><style>.cls-1{fill:#1abc9c;}</style></defs><title>Fichier 3</title><g id="Calque_2" data-name="Calque 2"><g id="Calque_2-2" data-name="Calque 2"><path class="cls-1" d="M225.58,0c-1.37.41-5.72,1.71-11.6,3.25a73,73,0,0,0-16.58,6c-6.25,3.18-9.29,5.65-15.07,8.67-6.72,3.51-16.08,7-20.35,7.54A61.37,61.37,0,0,0,148,28.13c-2.3.72-6.49,3.43-12.06,4.9-8.35,2.2-15.51.94-20.41.19a25.45,25.45,0,0,0-18,4C92.47,40.76,89.26,47,87,52.62S71.56,63.55,64.4,67.32s-22.61,6.41-27.13,6.41S10.7,70.42,10.15,70.33h0L.43,68.18a.35.35,0,0,0-.43.38,6.89,6.89,0,0,0,5.52,6.28l.2,0L36,78.71c1,.12,3.62,40.08,3.69,41.05.34,4.43,1.17,15.15,1.56,19.39.05.55.13,1.9.34,3.11a2.71,2.71,0,0,0,2.73,2.26l6.6.05h9.74a.35.35,0,0,1,.32.2,8.17,8.17,0,0,0,14.6,0,.35.35,0,0,1,.31-.2H77.3A1.41,1.41,0,0,1,78.71,146v2.91a1.06,1.06,0,0,0,1.06,1.06h4.8a1.06,1.06,0,0,0,1.06-1.06v-3.71a7.53,7.53,0,0,0-7.53-7.53H75.89a.35.35,0,0,1-.32-.2,8.17,8.17,0,0,0-5.09-4.2.35.35,0,0,1-.26-.34v-.49a.35.35,0,0,1,.35-.35h2.54A1.06,1.06,0,0,0,74.18,131v-1.41a1.06,1.06,0,0,0-1.06-1.06H70.57a.35.35,0,0,1-.35-.35v-.71a1.06,1.06,0,0,0-1.06-1.06H67.32a1.06,1.06,0,0,0-1.06,1.06v.71a.36.36,0,0,1-.36.36H63.36a1.06,1.06,0,0,0-1.06,1.06V131a1.06,1.06,0,0,0,1.06,1.06h2.54a.35.35,0,0,1,.35.35v.51a.35.35,0,0,1-.26.34,8.17,8.17,0,0,0-5,4.18.35.35,0,0,1-.32.2H50.92l-1.39-.06a1.94,1.94,0,0,1-2.11-2c-.38-3.56-1-10.62-1.07-14.82,0-2.21-1.76-42.09.53-42.71,0,0,11.48-2.28,16.2-3.83C67.39,72.81,83,65.89,83,65.89a4.16,4.16,0,0,0,.49-.2c5.89-2.78,35.58.15,50.25-2.14,11.55-1.8,35.79-13.94,41.07-18.46s15.07-13.94,18.84-17.71c2.39-2.39,5.72-5.85,8.06-7.8a23,23,0,0,1,4.78-3.09l19.34-7.87A.35.35,0,0,0,226,8.3V.36A.35.35,0,0,0,225.58,0ZM69.89,135.72c.27,0,.29.15.29.36s0,.37-.31.42a2.43,2.43,0,0,0-2.29,2.07c-.06.35-.32.27-.54.27s-.23-.23-.23-.4A3.27,3.27,0,0,1,69.89,135.72Zm-2.21-3.13v-.18a.35.35,0,0,1,.35-.35h.42a.35.35,0,0,1,.35.35V133l-.53,0H68A.35.35,0,0,1,67.67,132.59Zm-.6,6.56c.2,0,.43-.07.51.22.26.93,1.08,1.36,1.86,2,0-.72,0-1.29,0-1.87,0-.31.11-.4.41-.4s.33.16.33.4c0,1,0,2.1,0,3.14,0,.17.06.4-.24.39s-.47.08-.56-.25c-.26-.92-1.07-1.35-1.85-2,0,.7,0,1.29,0,1.89,0,.28-.11.36-.37.36s-.37-.09-.36-.36c0-1.07,0-2.14,0-3.21C66.79,139.31,66.8,139.12,67.08,139.15Zm3.07,4.73a3.18,3.18,0,0,1-3,2.6c-.2,0-.39,0-.38-.25s-.09-.45.29-.51a2.44,2.44,0,0,0,2.31-2.08c.06-.35.33-.27.55-.26S70.17,143.7,70.15,143.88ZM68,127.81h.42a.35.35,0,1,1,0,.71H68a.35.35,0,1,1,0-.71Zm-4.31,2.83v-.35a.35.35,0,0,1,.35-.35h8.34a.35.35,0,0,1,.35.35v.35Zm114-98s-1.19,4.06-9.48,9.09-23,14.33-31.27,16c-8.53,1.68-18,1.11-26.12,1.63-6.27.41-21.65,1.87-19.09-4,2-4.58,2.61-6.43,4.94-9.82,2.1-3.05,4.1-5.06,10.13-7.07,5.09-1.7,16.44.93,25.24.35,9-.59,11.78-2,20-6s12.31-1.13,24.11-6C181.87,24.43,177.68,32.66,177.68,32.66Z"/></g></g></svg>
