<svg xmlns="http://www.w3.org/2000/svg" viewBox="0 0 94.38 46.48"><defs><style>.cls-1{fill:#76cebd;}</style></defs><title>cloud</title><g id="Calque_2" data-name="Calque 2"><g id="Calque_1-2" data-name="Calque 1"><path class="cls-1" d="M94.38,1A12.66,12.66,0,0,0,82.72,13.59c0,.43,0,.85.06,1.26a6.93,6.93,0,0,0-5.18,1,8.87,8.87,0,0,0-14-4.51,12.12,12.12,0,0,0-23.3-.05A11,11,0,0,0,25.43,7.63a12.56,12.56,0,0,0-23.1,9.86A13.76,13.76,0,0,0,0,17.18v9.91a12.69,12.69,0,0,0,6.91,7.71A16.88,16.88,0,0,0,38,37.23a13.64,13.64,0,0,0,17.28-1.6,17.32,17.32,0,0,0,32.21-2,13.27,13.27,0,0,0,6.86,5.26Z"/></g></g></svg>